<svg width="60" height="60" viewBox="0 0 60 60" fill="none" xmlns="http://www.w3.org/2000/svg">
<g clip-path="url(#clip0_67_137)">
<path d="M12.5391 22.2657C12.5391 31.9584 20.4245 39.8438 30.1172 39.8438C39.8099 39.8438 47.6954 31.9584 47.6954 22.2657C47.6954 12.5729 39.8099 4.6875 30.1172 4.6875C20.4245 4.6875 12.5391 12.5729 12.5391 22.2657ZM30.1172 7.03125C38.5176 7.03125 45.3516 13.8652 45.3516 22.2657C45.3516 30.6661 38.5176 37.5 30.1172 37.5C21.7168 37.5 14.8828 30.6661 14.8828 22.2657C14.8828 13.8652 21.7168 7.03125 30.1172 7.03125Z" fill="white"/>
<path d="M19.2645 20.1764L23.8069 24.652L22.7619 30.9421C22.6891 31.3802 22.8699 31.8215 23.2292 32.0824C23.5881 32.3433 24.0638 32.3786 24.4579 32.1744L30.1172 29.2356L35.7761 32.1744C36.167 32.3772 36.6427 32.3456 37.0048 32.0824C37.3641 31.8215 37.5449 31.3802 37.4721 30.9421L36.4271 24.652L40.9695 20.1764C41.2858 19.8651 41.3988 19.4019 41.2615 18.9794C41.1242 18.5573 40.7603 18.2492 40.3213 18.1828L34.0174 17.2339L31.1651 11.5297C30.9668 11.1328 30.5608 10.882 30.1172 10.882C29.6732 10.882 29.2676 11.1328 29.0689 11.5297L26.2166 17.2339L19.9127 18.1828C19.4737 18.2488 19.1098 18.5573 18.9725 18.9794C18.8352 19.4019 18.9487 19.8651 19.2645 20.1764ZM27.1674 19.4609C27.5446 19.4042 27.8705 19.1675 28.0413 18.8265L30.1172 14.6741L32.1932 18.8265C32.3639 19.1675 32.6899 19.4042 33.0671 19.4609L37.6552 20.1517L34.3488 23.4087C34.0774 23.6765 33.9528 24.0596 34.0151 24.4359L34.7759 29.014L30.6569 26.8753C30.488 26.7875 30.3026 26.7435 30.1172 26.7435C29.9318 26.7435 29.7464 26.7875 29.5771 26.8753L25.4581 29.014L26.2189 24.4359C26.2816 24.0596 26.1571 23.6765 25.8852 23.4087L22.5792 20.1517L27.1674 19.4609Z" fill="#00E332"/>
<path d="M31.2891 1.17188C31.2891 1.81916 30.7645 2.34375 30.1172 2.34375C29.4699 2.34375 28.9453 1.81916 28.9453 1.17188C28.9453 0.524598 29.4699 0 30.1172 0C30.7645 0 31.2891 0.524598 31.2891 1.17188Z" fill="#00E332"/>
<path d="M24.5943 0.690801C14.7363 3.20713 7.85156 12.0791 7.85156 22.2657C7.85156 28.5924 10.5116 34.5539 15.1813 38.7759L8.12119 51.2183C7.89413 51.6189 7.92252 52.1151 8.19351 52.4868C8.46451 52.859 8.92777 53.038 9.37866 52.9441L17.3964 51.2792L20.2144 59.2201C20.3673 59.6522 20.7587 59.9548 21.2155 59.9955C21.6724 60.0363 22.1105 59.806 22.3371 59.4073L30.1172 45.7293L37.8969 59.4073C38.1066 59.7758 38.4966 59.9996 38.915 59.9996C38.9493 59.9996 38.9841 59.9983 39.0184 59.9955C39.4753 59.9548 39.8667 59.6517 40.02 59.2201L42.8376 51.2792L50.8553 52.9441C51.3058 53.0375 51.7695 52.8585 52.0405 52.4868C52.3119 52.1151 52.3398 51.6189 52.1128 51.2183L45.0527 38.7759C49.7224 34.5539 52.3824 28.5924 52.3824 22.2657C52.3824 12.0791 45.4976 3.20713 35.6401 0.690801C35.0126 0.530584 34.3749 0.909155 34.2147 1.53629C34.0545 2.16343 34.433 2.80155 35.0602 2.96177C43.8794 5.21305 50.0391 13.1511 50.0391 22.2657C50.0391 33.3587 41.0299 42.1876 30.1172 42.1876C19.1968 42.1876 10.1953 33.3514 10.1953 22.2657C10.1953 13.1511 16.3545 5.21305 25.1738 2.96177C25.801 2.80155 26.1795 2.16343 26.0198 1.53629C25.8596 0.909155 25.2219 0.530584 24.5943 0.690801ZM21.5666 56.0221L19.2636 49.5324C19.0677 48.9803 18.4946 48.6576 17.921 48.7766L11.4377 50.1229L17.0252 40.2755C20.2831 42.644 24.1406 44.0868 28.152 44.4439L21.5666 56.0221ZM42.313 48.7766C41.7399 48.6576 41.1663 48.9803 40.9704 49.5324L38.6678 56.0221L32.0819 44.4439C36.0938 44.0868 39.9509 42.644 43.2093 40.2755L48.7968 50.1229L42.313 48.7766Z" fill="white"/>
</g>
<defs>
<clipPath id="clip0_67_137">
<rect width="60" height="60" fill="white"/>
</clipPath>
</defs>
</svg>
