<svg width="60" height="60" viewBox="0 0 60 60" fill="none" xmlns="http://www.w3.org/2000/svg">
<path d="M48.7869 27.4996C48.7869 27.4994 48.7868 27.4992 48.7868 27.4988C48.6136 26.8641 48.2004 26.3512 47.653 26.0917C41.0477 23.0644 40.882 22.63 39.6031 22.63C39.1066 22.63 38.6224 22.7402 38.1641 22.9574L31.5534 26.0916C31.0059 26.3511 30.5926 26.8639 30.4191 27.4996C30.2047 28.2892 29.8448 29.9191 29.8448 31.963C29.8448 37.4478 32.3408 42.5023 37.6057 46.2908C38.8244 47.1682 40.3801 47.169 41.6005 46.2908C46.8769 42.4937 49.3613 37.4349 49.3613 31.9631C49.3613 29.919 49.0015 28.2892 48.7869 27.4996ZM40.5668 44.8543C39.9658 45.2866 39.242 45.2879 38.6396 44.8544C33.845 41.4035 31.6147 36.8571 31.6147 31.963C31.6147 30.1244 31.9358 28.6681 32.1269 27.9646C32.1699 27.8068 32.2531 27.7185 32.3115 27.691C39.2257 24.4675 38.984 24.3998 39.6031 24.3998C40.2181 24.3998 39.9872 24.4706 46.8949 27.691C46.9529 27.7185 47.036 27.8065 47.0791 27.9638C47.2706 28.6683 47.5917 30.1246 47.5917 31.9632C47.5916 36.848 45.3696 41.3968 40.5668 44.8543Z" fill="#00E332"/>
<path d="M50.2931 0H19.501C17.1811 0 15.2938 1.88731 15.2938 4.20704V44.3914H10.2169C7.67651 44.3914 5.60979 46.4583 5.60979 48.9987V54.3023C5.60979 57.4439 8.16565 59.9996 11.3071 59.9996C24.8535 59.9996 38.6208 59.9995 48.0766 60C51.5579 60 54.3902 57.1677 54.3902 53.6864V4.09712C54.3901 1.83797 52.5521 0 50.2931 0ZM12.3521 58.1059C9.70866 58.7604 7.37967 56.793 7.37967 54.3023V48.9987C7.37967 47.4341 8.65245 46.1613 10.2169 46.1613H15.2945C15.2945 46.1615 15.2945 46.1617 15.2945 46.1618V46.1619C15.2945 46.162 15.2945 46.1625 15.2945 46.1627C15.2945 46.1633 15.2945 46.164 15.2945 46.1651C15.2945 46.1727 15.2945 46.1792 15.2945 46.1837C15.2945 46.1852 15.2945 46.1864 15.2945 46.1875C15.2945 46.1884 15.2945 46.1894 15.2945 46.1904C15.2945 46.1908 15.2945 46.1911 15.2945 46.1915C15.2945 46.1919 15.2945 46.192 15.2945 46.1924C15.2947 46.3854 15.2954 47.6449 15.2989 54.3021C15.2989 56.1295 14.0446 57.6694 12.3521 58.1059ZM52.6203 53.6865C52.6202 56.1919 50.582 58.2302 48.0765 58.2302H15.4964C17.4045 56.2267 17.0396 53.966 17.0686 52.813V45.2763C17.0686 45.2449 17.0669 45.2138 17.0637 45.1833V4.20704C17.0637 2.86313 18.1572 1.76977 19.5011 1.76977H50.2931C51.5763 1.76977 52.6203 2.81379 52.6203 4.097V53.6865Z" fill="white"/>
<path d="M44.8139 30.4625C44.4334 30.1557 43.8764 30.2156 43.5696 30.596C37.6419 37.9098 38.0307 37.5349 37.9149 37.5428C37.8008 37.5502 37.9175 37.5716 35.5571 35.3616C35.2026 35.0252 34.6426 35.0395 34.306 35.394C33.9694 35.7485 33.984 36.3086 34.3385 36.6452L36.5985 38.7911C36.9516 39.1265 37.4228 39.313 37.9073 39.313C38.4685 39.313 39.0186 39.06 39.3847 38.606L44.9472 31.7072C45.254 31.3264 45.1943 30.7693 44.8139 30.4625Z" fill="#00E332"/>
<path d="M43.2303 6.76147H20.694C20.2053 6.76147 19.8091 7.15757 19.8091 7.64636C19.8091 8.13515 20.2053 8.53125 20.694 8.53125H43.2302C43.7189 8.53125 44.1151 8.13515 44.1151 7.64636C44.1151 7.15757 43.719 6.76147 43.2303 6.76147Z" fill="white"/>
<path d="M48.4763 6.76147H46.77C46.2813 6.76147 45.8851 7.15757 45.8851 7.64636C45.8851 8.13515 46.2813 8.53125 46.77 8.53125H48.4763C48.965 8.53125 49.3612 8.13515 49.3612 7.64636C49.3612 7.15757 48.9651 6.76147 48.4763 6.76147Z" fill="white"/>
<path d="M48.4764 51.3406H27.474C26.9853 51.3406 26.5891 51.7367 26.5891 52.2255C26.5891 52.7143 26.9853 53.1103 27.474 53.1103H48.4764C48.965 53.1103 49.3612 52.7143 49.3612 52.2255C49.3614 51.7367 48.9651 51.3406 48.4764 51.3406Z" fill="white"/>
<path d="M23.9343 51.3406H20.6941C20.2054 51.3406 19.8092 51.7367 19.8092 52.2255C19.8092 52.7143 20.2054 53.1103 20.6941 53.1103H23.9343C24.423 53.1103 24.8192 52.7143 24.8192 52.2255C24.8192 51.7367 24.423 51.3406 23.9343 51.3406Z" fill="white"/>
<path d="M48.4764 13.1327H20.694C20.2053 13.1327 19.8091 13.5288 19.8091 14.0176C19.8091 14.5064 20.2053 14.9025 20.694 14.9025H48.4764C48.965 14.9025 49.3612 14.5064 49.3612 14.0176C49.3614 13.5288 48.9651 13.1327 48.4764 13.1327Z" fill="white"/>
<path d="M48.4763 19.5038H32.3116C31.8229 19.5038 31.4267 19.8999 31.4267 20.3887C31.4267 20.8775 31.8229 21.2736 32.3116 21.2736H48.4763C48.965 21.2736 49.3612 20.8775 49.3612 20.3887C49.3612 19.8999 48.9651 19.5038 48.4763 19.5038Z" fill="white"/>
<path d="M28.7719 19.5038H20.6941C20.2054 19.5038 19.8092 19.8999 19.8092 20.3887C19.8092 20.8775 20.2054 21.2736 20.6941 21.2736H28.7719C29.2606 21.2736 29.6568 20.8775 29.6568 20.3887C29.6568 19.8999 29.2606 19.5038 28.7719 19.5038Z" fill="white"/>
<path d="M27.2298 25.875H20.694C20.2053 25.875 19.8091 26.2711 19.8091 26.7599C19.8091 27.2487 20.2053 27.6448 20.694 27.6448H27.2298C27.7184 27.6448 28.1146 27.2487 28.1146 26.7599C28.1146 26.2711 27.7184 25.875 27.2298 25.875Z" fill="white"/>
<path d="M27.2298 32.2462H20.694C20.2053 32.2462 19.8091 32.6423 19.8091 33.1311C19.8091 33.6199 20.2053 34.016 20.694 34.016H27.2298C27.7184 34.016 28.1146 33.6199 28.1146 33.1311C28.1146 32.6423 27.7184 32.2462 27.2298 32.2462Z" fill="white"/>
<path d="M28.7636 38.6174H20.694C20.2053 38.6174 19.8091 39.0135 19.8091 39.5023C19.8091 39.9911 20.2053 40.3872 20.694 40.3872H28.7636C29.2523 40.3872 29.6485 39.9911 29.6485 39.5023C29.6485 39.0135 29.2524 38.6174 28.7636 38.6174Z" fill="white"/>
<path d="M31.6245 44.9886H20.694C20.2053 44.9886 19.8091 45.3847 19.8091 45.8735C19.8091 46.3623 20.2053 46.7584 20.694 46.7584H31.6245C32.1132 46.7584 32.5094 46.3623 32.5094 45.8735C32.5095 45.3847 32.1133 44.9886 31.6245 44.9886Z" fill="white"/>
</svg>
