<svg width="60" height="60" viewBox="0 0 60 60" fill="none" xmlns="http://www.w3.org/2000/svg">
<g clip-path="url(#clip0_67_112)">
<path d="M56.6569 27.1129L55.1031 20.8979C55.5279 20.8076 55.8466 20.4308 55.8466 19.9792V18.9772C55.8466 16.8015 54.0765 15.0315 51.9009 15.0315H44.8238V12.9645C44.8238 11.8939 43.9528 11.0229 42.8822 11.0229H6.80696C5.73634 11.0229 4.8654 11.8939 4.8654 12.9645V30.0001C4.8654 30.5188 5.28598 30.9396 5.80489 30.9396C6.32368 30.9396 6.74438 30.519 6.74438 30.0001V12.9645C6.74438 12.9299 6.77239 12.9019 6.80696 12.9019H42.8821C42.9166 12.9019 42.9447 12.9299 42.9447 12.9645V30.0003C42.9447 30.5191 43.3652 30.9398 43.8841 30.9398C44.4029 30.9398 44.8236 30.5192 44.8236 30.0003V28.9353H55.9059C55.9069 28.9353 55.9076 28.9355 55.9084 28.9355C55.9093 28.9355 55.9102 28.9354 55.911 28.9354C57.2747 28.9363 58.4326 29.8314 58.8304 31.0648H55.9091C55.3903 31.0648 54.9696 31.4854 54.9696 32.0043V34.0085C54.9696 35.6316 56.2901 36.9521 57.9132 36.9521H58.978V41.0856H56.5215C55.7146 38.7556 53.4996 37.0772 50.8986 37.0772C48.2977 37.0772 46.0826 38.7556 45.2757 41.0856H44.8234V34.0083C44.8234 33.4896 44.4028 33.0688 43.8839 33.0688C43.3651 33.0688 42.9444 33.4894 42.9444 34.0083V41.0854H23.4529C22.6459 38.7554 20.4309 37.077 17.83 37.077C15.229 37.077 13.0139 38.7554 12.2071 41.0854H6.80696C6.77239 41.0854 6.74438 41.0574 6.74438 41.0228V38.956H10.8154C11.3341 38.956 11.7549 38.5354 11.7549 38.0165C11.7549 37.4976 11.3343 37.077 10.8154 37.077H1.79661C1.27782 37.077 0.857117 37.4976 0.857117 38.0165C0.857117 38.5354 1.2777 38.956 1.79661 38.956H4.86552V41.0228C4.86552 42.0935 5.73645 42.9644 6.80708 42.9644H11.8818C11.8815 42.9853 11.8801 43.006 11.8801 43.027C11.8801 46.3078 14.5493 48.9768 17.83 48.9768C21.1106 48.9768 23.7798 46.3078 23.7798 43.027C23.7798 43.0059 23.7784 42.9853 23.7782 42.9644H44.9504C44.9502 42.9853 44.9488 43.006 44.9488 43.027C44.9488 46.3078 47.618 48.9768 50.8986 48.9768C54.1793 48.9768 56.8485 46.3078 56.8485 43.027C56.8485 43.0059 56.8471 42.9853 56.8468 42.9644H59.9175C60.4363 42.9644 60.857 42.5438 60.857 42.0249V32.0041C60.8571 29.53 59.0317 27.4744 56.6569 27.1129ZM44.8238 16.9103H51.9009C53.0406 16.9103 53.9678 17.8375 53.9678 18.9772V19.0397H44.8238V16.9103ZM44.8238 27.0564V20.9186H53.1716L54.7061 27.0564H44.8238ZM17.83 47.0982C15.5852 47.0982 13.759 45.2721 13.759 43.0272C13.759 40.7824 15.5852 38.9562 17.83 38.9562C20.0747 38.9562 21.9009 40.7824 21.9009 43.0272C21.9009 45.2721 20.0747 47.0982 17.83 47.0982ZM50.8989 47.0982C48.6541 47.0982 46.8279 45.2721 46.8279 43.0272C46.8279 40.7824 48.6541 38.9562 50.8989 38.9562C53.1436 38.9562 54.9699 40.7824 54.9699 43.0272C54.9699 45.2721 53.1436 47.0982 50.8989 47.0982ZM58.9783 35.0731H57.9135C57.3264 35.0731 56.8487 34.5955 56.8487 34.0083V32.9436H58.9781V35.0731H58.9783Z" fill="white"/>
<path d="M17.8301 41.0856C16.7595 41.0856 15.8885 41.9565 15.8885 43.0271C15.8885 44.0978 16.7595 44.9687 17.8301 44.9687C18.9007 44.9687 19.7717 44.0978 19.7717 43.0271C19.7717 41.9565 18.9007 41.0856 17.8301 41.0856Z" fill="white"/>
<path d="M50.899 41.0856C49.8283 41.0856 48.9574 41.9565 48.9574 43.0271C48.9574 44.0978 49.8283 44.9687 50.899 44.9687C51.9696 44.9687 52.8405 44.0978 52.8405 43.0271C52.8405 41.9565 51.9696 41.0856 50.899 41.0856Z" fill="white"/>
<path d="M39.8759 37.0773H25.8467C25.3279 37.0773 24.9072 37.4979 24.9072 38.0168C24.9072 38.5357 25.3278 38.9562 25.8467 38.9562H39.8759C40.3947 38.9562 40.8154 38.5357 40.8154 38.0168C40.8154 37.4979 40.3948 37.0773 39.8759 37.0773Z" fill="#00E332"/>
<path d="M15.8258 33.069H3.80076C3.28197 33.069 2.86127 33.4896 2.86127 34.0085C2.86127 34.5274 3.28185 34.948 3.80076 34.948H15.8258C16.3446 34.948 16.7653 34.5274 16.7653 34.0085C16.7653 33.4896 16.3446 33.069 15.8258 33.069Z" fill="#00E332"/>
<path d="M33.5256 20.3168C33.1588 19.95 32.5638 19.95 32.197 20.3169L23.8425 28.6714L19.4964 24.3252C19.1295 23.9583 18.5346 23.9583 18.1678 24.3252C17.8009 24.6921 17.8009 25.2869 18.1678 25.6538L23.1783 30.6643C23.3617 30.8478 23.6022 30.9394 23.8425 30.9394C24.0829 30.9394 24.3235 30.8478 24.5067 30.6643L33.5255 21.6455C33.8924 21.2785 33.8924 20.6837 33.5256 20.3168Z" fill="#00E332"/>
</g>
<defs>
<clipPath id="clip0_67_112">
<rect width="60" height="60" fill="white"/>
</clipPath>
</defs>
</svg>
