<svg width="26" height="26" viewBox="0 0 26 26" fill="none" xmlns="http://www.w3.org/2000/svg">
<g clip-path="url(#clip0_67_685)">
<path d="M11.6316 0C5.2181 0 0 5.2181 0 11.6316C0 18.0454 5.2181 23.2632 11.6316 23.2632C18.0454 23.2632 23.2632 18.0454 23.2632 11.6316C23.2632 5.2181 18.0454 0 11.6316 0ZM11.6316 21.1158C6.40203 21.1158 2.14737 16.8612 2.14737 11.6316C2.14737 6.40208 6.40203 2.14737 11.6316 2.14737C16.8611 2.14737 21.1158 6.40203 21.1158 11.6316C21.1158 16.8611 16.8611 21.1158 11.6316 21.1158Z" fill="white"/>
<path d="M10.7281 12.2887H8V10.7465H10.7281V8H12.2719V10.7465H15V12.2887H12.2719V15H10.7281V12.2887Z" fill="white"/>
<path d="M25.7348 24.4549L20.5452 19.2652C20.1916 18.9116 19.6189 18.9116 19.2653 19.2652C18.9117 19.6186 18.9117 20.1919 19.2653 20.5452L24.4549 25.7348C24.6317 25.9116 24.8632 26 25.0949 26C25.3263 26 25.558 25.9116 25.7348 25.7348C26.0885 25.3815 26.0885 24.8082 25.7348 24.4549Z" fill="white"/>
</g>
<defs>
<clipPath id="clip0_67_685">
<rect width="26" height="26" fill="white"/>
</clipPath>
</defs>
</svg>
