<svg width="24" height="24" viewBox="0 0 24 24" fill="none" xmlns="http://www.w3.org/2000/svg">
<path d="M12 0C5.3832 0 0 5.38327 0 12.0001C0 18.6169 5.3832 24 12 24C18.6168 24 24 18.6169 24 12.0001C24 5.38327 18.6168 0 12 0ZM12 21.8182C6.58618 21.8182 2.18182 17.4138 2.18182 12.0001C2.18182 6.58633 6.58618 2.18182 12 2.18182C17.4138 2.18182 21.8182 6.58633 21.8182 12.0001C21.8182 17.4138 17.4137 21.8182 12 21.8182Z" fill="white"/>
<path d="M11.9999 5.09088C11.198 5.09088 10.5456 5.74368 10.5456 6.54608C10.5456 7.34776 11.198 7.99997 11.9999 7.99997C12.8018 7.99997 13.4541 7.34776 13.4541 6.54608C13.4541 5.74368 12.8018 5.09088 11.9999 5.09088Z" fill="white"/>
<path d="M12 10.1817C11.3975 10.1817 10.9091 10.6701 10.9091 11.2726V17.8181C10.9091 18.4205 11.3975 18.909 12 18.909C12.6025 18.909 13.0909 18.4205 13.0909 17.8181V11.2726C13.0909 10.6701 12.6025 10.1817 12 10.1817Z" fill="white"/>
</svg>
