<svg width="42" height="42" viewBox="0 0 42 42" fill="none" xmlns="http://www.w3.org/2000/svg">
<g clip-path="url(#clip0_67_85)">
<path d="M33.7826 31.9565C31.2663 31.9565 29.2174 34.0054 29.2174 36.5217C29.2174 39.0381 31.2662 41.087 33.7826 41.087C36.299 41.087 38.3478 39.0381 38.3478 36.5217C38.3478 34.0053 36.299 31.9565 33.7826 31.9565ZM33.7826 39.2609C32.2724 39.2609 31.0435 38.0319 31.0435 36.5217C31.0435 35.0115 32.2724 33.7826 33.7826 33.7826C35.2928 33.7826 36.5218 35.0115 36.5218 36.5217C36.5218 38.0319 35.2928 39.2609 33.7826 39.2609Z" fill="white"/>
<path d="M15.5217 31.9565C13.0054 31.9565 10.9565 34.0054 10.9565 36.5217C10.9565 39.0381 13.0054 41.087 15.5217 41.087C18.0381 41.087 20.0869 39.0381 20.0869 36.5218C20.0869 34.0055 18.0381 31.9565 15.5217 31.9565ZM15.5217 39.2609C14.0115 39.2609 12.7826 38.0319 12.7826 36.5217C12.7826 35.0115 14.0115 33.7826 15.5217 33.7826C17.0319 33.7826 18.2609 35.0115 18.2609 36.5217C18.2609 38.0319 17.0319 39.2609 15.5217 39.2609Z" fill="white"/>
<path d="M37.4348 28.3044H16.3599C14.1923 28.3044 12.3097 26.7614 11.8842 24.634L7.2861 1.64717C7.20024 1.21987 6.82592 0.913086 6.39134 0.913086H0.913073C0.409073 0.913086 0 1.32216 0 1.82616C0 2.33016 0.409073 2.73923 0.913073 2.73923H5.64262L10.0928 24.9938C10.6881 27.9703 13.3249 30.1306 16.3599 30.1306H37.4348C37.9388 30.1306 38.3479 29.7215 38.3479 29.2175C38.3479 28.7135 37.9388 28.3044 37.4348 28.3044Z" fill="white"/>
<path d="M41.7719 6.69994C41.5984 6.50452 41.3501 6.39136 41.0871 6.39136H8.21749C7.71349 6.39136 7.30441 6.80043 7.30441 7.30443C7.30441 7.80843 7.71349 8.21742 8.21749 8.21742H40.0535L38.7552 18.6005C38.5835 19.9683 37.4148 21 36.0361 21H10.9566C10.4526 21 10.0435 21.4091 10.0435 21.9131C10.0435 22.4171 10.4526 22.8262 10.9566 22.8262H36.0361C38.3333 22.8262 40.2818 21.1078 40.5667 18.827L41.9928 7.41759C42.0257 7.15823 41.9454 6.89527 41.7719 6.69994Z" fill="white"/>
</g>
<defs>
<clipPath id="clip0_67_85">
<rect width="42" height="42" fill="white"/>
</clipPath>
</defs>
</svg>
